<svg width="66" height="65" viewBox="0 0 66 65" fill="none" xmlns="http://www.w3.org/2000/svg">
<rect width="33" height="33" fill="#D9D9D9"/>
<rect x="33" width="33" height="33" fill="#444444"/>
<rect y="32" width="33" height="33" fill="black"/>
<rect x="33" y="32" width="33" height="33" fill="#646464"/>
<path d="M11.2642 23V8.45455H17.0028C18.1013 8.45455 19.0388 8.65104 19.8153 9.04403C20.5966 9.43229 21.1908 9.9839 21.598 10.6989C22.0099 11.4091 22.2159 12.2448 22.2159 13.206C22.2159 14.1719 22.0076 15.0028 21.5909 15.6989C21.1742 16.3902 20.5705 16.9205 19.7798 17.2898C18.9938 17.6591 18.0421 17.8438 16.9247 17.8438H13.0824V15.3722H16.4276C17.0147 15.3722 17.5024 15.2917 17.8906 15.1307C18.2789 14.9697 18.5677 14.7282 18.7571 14.4062C18.9512 14.0843 19.0483 13.6842 19.0483 13.206C19.0483 12.723 18.9512 12.3158 18.7571 11.9844C18.5677 11.6529 18.2765 11.402 17.8835 11.2315C17.4953 11.0563 17.0052 10.9688 16.4134 10.9688H14.3395V23H11.2642ZM19.1193 16.3807L22.7344 23H19.3395L15.8026 16.3807H19.1193Z" fill="black"/>
<path d="M52.1548 12.6378C52.098 12.0649 51.8542 11.6198 51.4233 11.3026C50.9924 10.9853 50.4077 10.8267 49.669 10.8267C49.1671 10.8267 48.7434 10.8977 48.3977 11.0398C48.0521 11.1771 47.7869 11.3688 47.6023 11.6151C47.4223 11.8613 47.3324 12.1406 47.3324 12.4531C47.3229 12.7135 47.3774 12.9408 47.4957 13.1349C47.6188 13.3291 47.7869 13.4972 48 13.6392C48.2131 13.7765 48.4593 13.8973 48.7386 14.0014C49.018 14.1009 49.3163 14.1861 49.6335 14.2571L50.9403 14.5696C51.5748 14.7116 52.1572 14.901 52.6875 15.1378C53.2178 15.3745 53.6771 15.6657 54.0653 16.0114C54.4536 16.357 54.7543 16.7642 54.9673 17.233C55.1851 17.7017 55.2964 18.2391 55.3011 18.8452C55.2964 19.7353 55.0691 20.5071 54.6193 21.1605C54.1742 21.8092 53.5303 22.3134 52.6875 22.6733C51.8494 23.0284 50.8385 23.206 49.6548 23.206C48.4806 23.206 47.4579 23.026 46.5866 22.6662C45.7202 22.3063 45.0431 21.7737 44.5554 21.0682C44.0724 20.358 43.8191 19.4796 43.7955 18.4332H46.7713C46.8045 18.9209 46.9441 19.3281 47.1903 19.6548C47.4413 19.9768 47.7751 20.2206 48.1918 20.3864C48.6132 20.5473 49.089 20.6278 49.6193 20.6278C50.1402 20.6278 50.5923 20.5521 50.9759 20.4006C51.3641 20.2491 51.6648 20.0384 51.8778 19.7685C52.0909 19.4986 52.1974 19.1884 52.1974 18.8381C52.1974 18.5114 52.1004 18.2367 51.9062 18.0142C51.7169 17.7917 51.4375 17.6023 51.0682 17.446C50.7036 17.2898 50.2562 17.1477 49.7259 17.0199L48.142 16.6222C46.9157 16.3239 45.9474 15.8575 45.2372 15.223C44.527 14.5885 44.1742 13.7339 44.179 12.6591C44.1742 11.7784 44.4086 11.009 44.8821 10.3509C45.3603 9.69271 46.0161 9.17898 46.8494 8.80966C47.6828 8.44034 48.6297 8.25568 49.6903 8.25568C50.7699 8.25568 51.7121 8.44034 52.517 8.80966C53.3267 9.17898 53.9564 9.69271 54.4062 10.3509C54.8561 11.009 55.0881 11.7713 55.1023 12.6378H52.1548Z" fill="white"/>
<path d="M19.1548 44.6378C19.098 44.0649 18.8542 43.6198 18.4233 43.3026C17.9924 42.9853 17.4077 42.8267 16.669 42.8267C16.1671 42.8267 15.7434 42.8977 15.3977 43.0398C15.0521 43.1771 14.7869 43.3688 14.6023 43.6151C14.4223 43.8613 14.3324 44.1406 14.3324 44.4531C14.3229 44.7135 14.3774 44.9408 14.4957 45.1349C14.6188 45.3291 14.7869 45.4972 15 45.6392C15.2131 45.7765 15.4593 45.8973 15.7386 46.0014C16.018 46.1009 16.3163 46.1861 16.6335 46.2571L17.9403 46.5696C18.5748 46.7116 19.1572 46.901 19.6875 47.1378C20.2178 47.3745 20.6771 47.6657 21.0653 48.0114C21.4536 48.357 21.7543 48.7642 21.9673 49.233C22.1851 49.7017 22.2964 50.2391 22.3011 50.8452C22.2964 51.7353 22.0691 52.5071 21.6193 53.1605C21.1742 53.8092 20.5303 54.3134 19.6875 54.6733C18.8494 55.0284 17.8385 55.206 16.6548 55.206C15.4806 55.206 14.4579 55.026 13.5866 54.6662C12.7202 54.3063 12.0431 53.7737 11.5554 53.0682C11.0724 52.358 10.8191 51.4796 10.7955 50.4332H13.7713C13.8045 50.9209 13.9441 51.3281 14.1903 51.6548C14.4413 51.9768 14.7751 52.2206 15.1918 52.3864C15.6132 52.5473 16.089 52.6278 16.6193 52.6278C17.1402 52.6278 17.5923 52.5521 17.9759 52.4006C18.3641 52.2491 18.6648 52.0384 18.8778 51.7685C19.0909 51.4986 19.1974 51.1884 19.1974 50.8381C19.1974 50.5114 19.1004 50.2367 18.9062 50.0142C18.7169 49.7917 18.4375 49.6023 18.0682 49.446C17.7036 49.2898 17.2562 49.1477 16.7259 49.0199L15.142 48.6222C13.9157 48.3239 12.9474 47.8575 12.2372 47.223C11.527 46.5885 11.1742 45.7339 11.179 44.6591C11.1742 43.7784 11.4086 43.009 11.8821 42.3509C12.3603 41.6927 13.0161 41.179 13.8494 40.8097C14.6828 40.4403 15.6297 40.2557 16.6903 40.2557C17.7699 40.2557 18.7121 40.4403 19.517 40.8097C20.3267 41.179 20.9564 41.6927 21.4062 42.3509C21.8561 43.009 22.0881 43.7713 22.1023 44.6378H19.1548Z" fill="white"/>
<path d="M52.1548 44.6378C52.098 44.0649 51.8542 43.6198 51.4233 43.3026C50.9924 42.9853 50.4077 42.8267 49.669 42.8267C49.1671 42.8267 48.7434 42.8977 48.3977 43.0398C48.0521 43.1771 47.7869 43.3688 47.6023 43.6151C47.4223 43.8613 47.3324 44.1406 47.3324 44.4531C47.3229 44.7135 47.3774 44.9408 47.4957 45.1349C47.6188 45.3291 47.7869 45.4972 48 45.6392C48.2131 45.7765 48.4593 45.8973 48.7386 46.0014C49.018 46.1009 49.3163 46.1861 49.6335 46.2571L50.9403 46.5696C51.5748 46.7116 52.1572 46.901 52.6875 47.1378C53.2178 47.3745 53.6771 47.6657 54.0653 48.0114C54.4536 48.357 54.7543 48.7642 54.9673 49.233C55.1851 49.7017 55.2964 50.2391 55.3011 50.8452C55.2964 51.7353 55.0691 52.5071 54.6193 53.1605C54.1742 53.8092 53.5303 54.3134 52.6875 54.6733C51.8494 55.0284 50.8385 55.206 49.6548 55.206C48.4806 55.206 47.4579 55.026 46.5866 54.6662C45.7202 54.3063 45.0431 53.7737 44.5554 53.0682C44.0724 52.358 43.8191 51.4796 43.7955 50.4332H46.7713C46.8045 50.9209 46.9441 51.3281 47.1903 51.6548C47.4413 51.9768 47.7751 52.2206 48.1918 52.3864C48.6132 52.5473 49.089 52.6278 49.6193 52.6278C50.1402 52.6278 50.5923 52.5521 50.9759 52.4006C51.3641 52.2491 51.6648 52.0384 51.8778 51.7685C52.0909 51.4986 52.1974 51.1884 52.1974 50.8381C52.1974 50.5114 52.1004 50.2367 51.9062 50.0142C51.7169 49.7917 51.4375 49.6023 51.0682 49.446C50.7036 49.2898 50.2562 49.1477 49.7259 49.0199L48.142 48.6222C46.9157 48.3239 45.9474 47.8575 45.2372 47.223C44.527 46.5885 44.1742 45.7339 44.179 44.6591C44.1742 43.7784 44.4086 43.009 44.8821 42.3509C45.3603 41.6927 46.0161 41.179 46.8494 40.8097C47.6828 40.4403 48.6297 40.2557 49.6903 40.2557C50.7699 40.2557 51.7121 40.4403 52.517 40.8097C53.3267 41.179 53.9564 41.6927 54.4062 42.3509C54.8561 43.009 55.0881 43.7713 55.1023 44.6378H52.1548Z" fill="white"/>
</svg>
